<svg width="60" height="60" viewBox="0 0 60 60" fill="none" xmlns="http://www.w3.org/2000/svg">
<g id="mdi:luck-outline">
<path id="Vector" d="M26.525 31.55L26.625 31.45L27.9 30.075L27.95 30L27.9 29.925C27.5 29.45 27.05 29 26.65 28.55L26.525 28.45C21.05 22.425 17.575 18.825 13.95 17.8C13.225 17.6 12.5 17.5 11.725 17.5C7.975 17.5 5 20.625 5 24.375C5 25.95 5.475 27.5 6.375 28.75C6.7 29.2 7.075 29.625 7.5 30C7.075 30.375 6.7 30.8 6.375 31.25C5.475 32.5 5 34.1 5 35.775C5 39.525 8.125 42.5 11.875 42.5C12.575 42.5 13.275 42.4 13.95 42.225C17.5 41.25 21 37.625 26.525 31.55ZM21.175 30C18.925 32.425 17.2 34.225 15.65 35.525C13.575 37.275 12.5 37.5 11.875 37.5C10.75 37.5 10 36.625 10 35.775C10 34.825 10.35 34.15 10.825 33.75L15 30L10.825 26.25C10.5621 26.0141 10.3526 25.7248 10.2103 25.4015C10.068 25.0781 9.99635 24.7282 10 24.375C10 23.25 10.875 22.5 11.725 22.5C12.5 22.5 13.575 22.75 15.65 24.5C17.2 25.775 18.925 27.575 21.175 30ZM17.8 46.075C17.6 46.8 17.5 47.5 17.5 48.275C17.5 52.025 20.625 55 24.375 55C25.95 55 27.5 54.525 28.75 53.625C29.2 53.3 29.625 52.925 30 52.5C30.375 52.925 30.8 53.3 31.25 53.625C32.5 54.525 34.1 55 35.775 55C39.525 55 42.5 51.875 42.5 48.125C42.5 47.425 42.4 46.725 42.225 46.05C41.25 42.5 37.625 39 31.55 33.475L31.45 33.375L30.075 32.125L30 32.05L29.925 32.125L28.55 33.375L28.45 33.45C22.425 38.95 18.825 42.425 17.8 46.075ZM30 38.825C32.425 41.075 34.225 42.8 35.525 44.35C37.275 46.425 37.5 47.5 37.5 48.125C37.5 49.25 36.625 50 35.775 50C34.825 50 34.15 49.65 33.75 49.175L30 45L26.25 49.175C25.825 49.675 25.125 50 24.375 50C23.25 50 22.5 49.125 22.5 48.275C22.5 47.5 22.75 46.425 24.5 44.35C25.775 42.8 27.575 41.075 30 38.825ZM33.475 31.55C38.975 37.575 42.425 41.175 46.075 42.2C46.8 42.4 47.5 42.5 48.275 42.5C52.025 42.5 55 39.375 55 35.625C55 34.05 54.525 32.5 53.625 31.25C53.3 30.8 52.925 30.375 52.5 30C52.925 29.625 53.3 29.2 53.625 28.75C54.525 27.5 55 25.925 55 24.225C55 20.475 51.875 17.5 48.125 17.5C47.425 17.5 46.725 17.6 46.05 17.775C42.5 18.75 39 22.375 33.475 28.45L33.4 28.55L32.075 30L33.4 31.45L33.475 31.55ZM38.85 30C41.075 27.575 42.825 25.775 44.35 24.475C46.45 22.725 47.5 22.5 48.125 22.5C49.25 22.5 50 23.375 50 24.225C50 25.175 49.65 25.85 49.175 26.25L45 30L49.175 33.75C49.675 34.2 50 34.875 50 35.625C50 36.75 49.125 37.5 48.275 37.5C47.5 37.5 46.425 37.25 44.35 35.5C42.825 34.225 41.075 32.425 38.85 30ZM31.55 26.55C37.575 21.05 41.175 17.575 42.2 13.95C42.4 13.225 42.5 12.5 42.5 11.725C42.5 7.975 39.375 5 35.625 5C34.05 5 32.5 5.475 31.25 6.375C30.8 6.7 30.375 7.075 30 7.5C29.625 7.075 29.2 6.7 28.75 6.375C27.5 5.475 25.925 5 24.225 5C20.475 5 17.5 8.125 17.5 11.875C17.5 12.575 17.6 13.275 17.775 13.95C18.75 17.5 22.375 21 28.45 26.55L28.55 26.625L29.925 27.875L30 27.95L30.075 27.9L31.475 26.625L31.55 26.525M30 21.175C27.575 18.925 25.775 17.2 24.475 15.65C22.725 13.575 22.5 12.5 22.5 11.875C22.5 10.75 23.375 10 24.225 10C25.175 10 25.85 10.35 26.25 10.825L30 15L33.75 10.825C34.2 10.325 34.875 10 35.625 10C36.75 10 37.5 10.875 37.5 11.725C37.5 12.5 37.25 13.575 35.5 15.65C34.225 17.2 32.425 18.925 30 21.175Z" fill="#FFFAEC"/>
</g>
</svg>
