<svg width="54" height="54" viewBox="0 0 54 54" fill="none" xmlns="http://www.w3.org/2000/svg">
<rect width="54" height="54" rx="27" fill="#FFFAEC"/>
<g clip-path="url(#clip0_19_4221)">
<path d="M28.75 21.3125C28.75 20.9645 28.8883 20.6306 29.1345 20.3845C29.3806 20.1383 29.7144 20 30.0625 20H37.0625C37.322 20.0003 37.5755 20.0774 37.7911 20.2216C38.0068 20.3658 38.1748 20.5707 38.274 20.8104C38.3733 21.0501 38.3993 21.3138 38.3487 21.5683C38.2982 21.8227 38.1734 22.0565 37.99 22.2401L34.6825 25.551C35.2285 25.684 35.7395 25.866 36.1998 26.1093C37.4983 26.7936 38.3768 27.9696 38.3768 29.6181C38.3768 30.7608 37.9725 31.732 37.276 32.4653C36.6005 33.1793 35.7115 33.608 34.812 33.8251C33.0445 34.2503 30.9183 33.9353 29.345 32.9028C29.076 32.7029 28.8935 32.4077 28.8349 32.0777C28.7763 31.7477 28.846 31.4078 29.0298 31.1274C29.2135 30.8471 29.4975 30.6476 29.8235 30.5697C30.1495 30.4918 30.4929 30.5414 30.7835 30.7083C31.718 31.3208 33.0935 31.5378 34.1978 31.2718C34.7333 31.1441 35.1253 30.92 35.3703 30.6611C35.596 30.423 35.7518 30.1011 35.7518 29.6181C35.7518 29.0791 35.5365 28.7273 34.9748 28.4316C34.322 28.0868 33.2598 27.8751 31.8143 27.8751C31.5549 27.8748 31.3013 27.7977 31.0857 27.6535C30.8701 27.5093 30.702 27.3044 30.6028 27.0647C30.5035 26.825 30.4776 26.5613 30.5281 26.3068C30.5787 26.0524 30.7035 25.8186 30.8868 25.635L33.8968 22.625H30.0625C29.7144 22.625 29.3806 22.4868 29.1345 22.2406C28.8883 21.9945 28.75 21.6606 28.75 21.3125ZM22.4728 31.3978C21.8603 31.3103 21.1253 31.5956 20.7525 32.3988C20.6823 32.5587 20.5808 32.7029 20.454 32.8231C20.3272 32.9433 20.1778 33.0369 20.0144 33.0986C19.8509 33.1602 19.6769 33.1887 19.5023 33.1822C19.3278 33.1757 19.1563 33.1345 18.9979 33.0608C18.8395 32.9872 18.6974 32.8828 18.5799 32.7535C18.4624 32.6243 18.3719 32.4729 18.3136 32.3083C18.2554 32.1436 18.2306 31.969 18.2407 31.7946C18.2508 31.6202 18.2957 31.4496 18.3725 31.2928C19.2615 29.3783 21.1533 28.5541 22.849 28.7991C24.599 29.0528 26.125 30.4528 26.125 32.6875C26.125 35.1953 24.221 36.5236 22.9925 37.3793C22.4535 37.7573 21.9933 38.0741 21.6415 38.382H25.25C25.5981 38.382 25.932 38.5203 26.1781 38.7665C26.4243 39.0126 26.5625 39.3465 26.5625 39.6945C26.5625 40.0426 26.4243 40.3765 26.1781 40.6226C25.932 40.8688 25.5981 41.007 25.25 41.007H19.5625C19.2144 41.007 18.8806 40.8688 18.6345 40.6226C18.3883 40.3765 18.25 40.0426 18.25 39.6945C18.25 38.487 18.775 37.5753 19.4225 36.8771C20.0315 36.2261 20.8225 35.694 21.435 35.267C22.835 34.2871 23.5 33.6851 23.5 32.6875C23.5 31.8598 23.0328 31.48 22.4728 31.3978ZM22.807 13.1558C23.0164 13.2679 23.1914 13.4347 23.3135 13.6384C23.4355 13.8421 23.5 14.0751 23.5 14.3125V22.66H24.7443C25.0924 22.66 25.4262 22.7983 25.6724 23.0445C25.9185 23.2906 26.0568 23.6245 26.0568 23.9725C26.0568 24.3206 25.9185 24.6545 25.6724 24.9006C25.4262 25.1468 25.0924 25.285 24.7443 25.285H19.5783C19.2302 25.285 18.8964 25.1468 18.6502 24.9006C18.4041 24.6545 18.2658 24.3206 18.2658 23.9725C18.2658 23.6245 18.4041 23.2906 18.6502 23.0445C18.8964 22.7983 19.2302 22.66 19.5783 22.66H20.875V16.7626L20.2905 17.1528C20.0009 17.3413 19.6486 17.408 19.3101 17.3384C18.9716 17.2687 18.6742 17.0684 18.4825 16.7808C18.2908 16.4933 18.2202 16.1417 18.2861 15.8025C18.3521 15.4632 18.5491 15.1637 18.8345 14.9688L21.4595 13.2188C21.6573 13.0871 21.887 13.0115 22.1243 13C22.3617 12.9886 22.5976 13.0419 22.807 13.154V13.1558Z" fill="#FF920A"/>
</g>
<defs>
<clipPath id="clip0_19_4221">
<rect width="28" height="28" fill="white" transform="translate(13 13)"/>
</clipPath>
</defs>
</svg>
