<svg width="163" height="20" viewBox="0 0 163 20" fill="none" xmlns="http://www.w3.org/2000/svg">
<g clip-path="url(#clip0_25_7580)">
<path fill-rule="evenodd" clip-rule="evenodd" d="M8.4715 10.8619L10.7242 13.1146C11.0152 13.4056 11.2134 13.7763 11.2937 14.18C11.374 14.5836 11.3328 15.002 11.1753 15.3822C11.0178 15.7624 10.7511 16.0874 10.4089 16.316C10.0667 16.5446 9.66437 16.6666 9.25283 16.6666H9.11883C8.72562 16.6673 8.33938 16.5628 8.00016 16.3639C7.66095 16.5628 7.27471 16.6673 6.8815 16.6666H6.74816C6.33657 16.6668 5.93417 16.5448 5.59187 16.3163C5.24958 16.0877 4.98276 15.7627 4.82519 15.3825C4.66761 15.0022 4.62635 14.5838 4.70663 14.1801C4.7869 13.7764 4.9851 13.4056 5.27616 13.1146L7.52883 10.8613C7.65385 10.7363 7.82339 10.6661 8.00016 10.6661C8.17694 10.6661 8.34648 10.7363 8.4715 10.8613V10.8619ZM12.5868 6.66659C13.1182 6.66658 13.6295 6.86991 14.0158 7.23485C14.402 7.5998 14.634 8.09871 14.6642 8.62925L14.6675 8.74725V8.88125C14.6684 9.27449 14.5639 9.66078 14.3648 9.99992C14.5328 10.2859 14.6382 10.6139 14.6622 10.9666L14.6675 11.1186V11.2519C14.6677 11.6519 14.5527 12.0434 14.3361 12.3797C14.1195 12.716 13.8106 12.9827 13.4464 13.1479C13.0822 13.3132 12.678 13.3699 12.2824 13.3114C11.8867 13.2529 11.5163 13.0815 11.2155 12.8179L11.1155 12.7239L8.86216 10.4713C8.74748 10.3564 8.67865 10.2036 8.66858 10.0416C8.65852 9.87957 8.70791 9.71945 8.8075 9.59125L8.86283 9.52859L11.1155 7.27592C11.5056 6.88589 12.0352 6.66672 12.5868 6.66659ZM3.4135 6.66659C3.92016 6.66659 4.40683 6.85059 4.78483 7.18192L4.88483 7.27592L7.13816 9.52859C7.25285 9.64347 7.32168 9.79625 7.33175 9.95826C7.34181 10.1203 7.29242 10.2804 7.19283 10.4086L7.1375 10.4713L4.88483 12.7239C4.60083 13.0075 4.24089 13.203 3.84836 13.2868C3.45582 13.3705 3.04745 13.339 2.67243 13.1959C2.29741 13.0529 1.97174 12.8045 1.73465 12.4807C1.49757 12.1568 1.35918 11.7713 1.33616 11.3706L1.3335 11.2526V11.1186C1.3335 10.7086 1.44483 10.3266 1.63616 9.99992C1.46333 9.70516 1.36153 9.3742 1.33883 9.03325L1.3335 8.88192V8.74859C1.33332 8.47524 1.38701 8.20453 1.49149 7.95194C1.59598 7.69935 1.74921 7.46982 1.94244 7.27647C2.13566 7.08312 2.36509 6.92974 2.61762 6.8251C2.87014 6.72045 3.14015 6.66659 3.4135 6.66659ZM6.88083 3.33325C7.27402 3.33268 7.66023 3.43717 7.9995 3.63592C8.29426 3.46309 8.62522 3.36128 8.96616 3.33859L9.11816 3.33325H9.2515C9.65146 3.33302 10.043 3.44808 10.3793 3.66464C10.7155 3.88121 10.9823 4.1901 11.1475 4.55434C11.3127 4.91858 11.3695 5.32272 11.311 5.71838C11.2524 6.11405 11.0811 6.48445 10.8175 6.78525L10.7235 6.88525L8.47083 9.13859C8.35595 9.25327 8.20317 9.32211 8.04116 9.33217C7.87914 9.34223 7.71902 9.29284 7.59083 9.19325L7.52816 9.13792L5.2755 6.88525C4.99158 6.60137 4.79587 6.24141 4.71195 5.84879C4.62804 5.45616 4.65951 5.04765 4.80257 4.67251C4.94564 4.29737 5.19418 3.97164 5.51823 3.73459C5.84227 3.49755 6.22798 3.35933 6.62883 3.33659L6.7475 3.33325H6.88083Z" fill="#0682FF"/>
</g>
<path d="M23.616 11.656V9.384H25.712C26.1173 9.384 26.464 9.304 26.752 9.144C27.0507 8.984 27.28 8.76 27.44 8.472C27.6 8.17333 27.68 7.832 27.68 7.448C27.68 7.04267 27.6 6.696 27.44 6.408C27.28 6.10933 27.0507 5.88533 26.752 5.736C26.464 5.576 26.1173 5.496 25.712 5.496H23.616V3.224H25.584C26.576 3.224 27.424 3.38933 28.128 3.72C28.8427 4.05067 29.3867 4.52 29.76 5.128C30.144 5.736 30.336 6.46667 30.336 7.32V7.576C30.336 8.408 30.144 9.13333 29.76 9.752C29.3867 10.36 28.8427 10.8293 28.128 11.16C27.424 11.4907 26.576 11.656 25.584 11.656H23.616ZM21.312 15V3.224H23.936V15H21.312ZM31.918 15V6.232H33.95V9.992H33.902C33.902 8.75467 34.1633 7.8 34.686 7.128C35.2193 6.456 35.9873 6.12 36.99 6.12H37.326V8.328H36.686C35.982 8.328 35.438 8.52 35.054 8.904C34.67 9.27733 34.478 9.82133 34.478 10.536V15H31.918ZM42.8775 15.304C42.1095 15.304 41.4268 15.1867 40.8295 14.952C40.2322 14.7067 39.7255 14.376 39.3095 13.96C38.9042 13.544 38.5948 13.0693 38.3815 12.536C38.1682 11.992 38.0615 11.4213 38.0615 10.824V10.456C38.0615 9.848 38.1682 9.272 38.3815 8.728C38.6055 8.17333 38.9255 7.688 39.3415 7.272C39.7682 6.856 40.2802 6.53067 40.8775 6.296C41.4748 6.05067 42.1415 5.928 42.8775 5.928C43.6348 5.928 44.3068 6.05067 44.8935 6.296C45.4908 6.53067 45.9975 6.856 46.4135 7.272C46.8295 7.688 47.1495 8.17333 47.3735 8.728C47.5975 9.272 47.7095 9.848 47.7095 10.456V10.824C47.7095 11.4213 47.6028 11.992 47.3895 12.536C47.1762 13.0693 46.8615 13.544 46.4455 13.96C46.0402 14.376 45.5388 14.7067 44.9415 14.952C44.3442 15.1867 43.6562 15.304 42.8775 15.304ZM42.8775 13.144C43.3788 13.144 43.7948 13.0373 44.1255 12.824C44.4562 12.6107 44.7068 12.312 44.8775 11.928C45.0588 11.544 45.1495 11.1173 45.1495 10.648C45.1495 10.1467 45.0588 9.70933 44.8775 9.336C44.6962 8.952 44.4348 8.648 44.0935 8.424C43.7628 8.2 43.3575 8.088 42.8775 8.088C42.4082 8.088 42.0028 8.2 41.6615 8.424C41.3202 8.648 41.0588 8.952 40.8775 9.336C40.7068 9.70933 40.6215 10.1467 40.6215 10.648C40.6215 11.1173 40.7068 11.544 40.8775 11.928C41.0482 12.312 41.3042 12.6107 41.6455 12.824C41.9868 13.0373 42.3975 13.144 42.8775 13.144ZM54.8881 15.288C54.1735 15.288 53.5441 15.1387 53.0001 14.84C52.4561 14.5307 52.0295 14.088 51.7201 13.512C51.4108 12.936 51.2455 12.232 51.2241 11.4H51.5281V15H49.4961V3.32H52.0561V9.256L51.4481 10.024C51.4801 9.13867 51.6455 8.39733 51.9441 7.8C52.2535 7.192 52.6748 6.73867 53.2081 6.44C53.7415 6.13067 54.3495 5.976 55.0321 5.976C55.6295 5.976 56.1681 6.088 56.6481 6.312C57.1388 6.52533 57.5548 6.83467 57.8961 7.24C58.2375 7.63467 58.4988 8.104 58.6801 8.648C58.8721 9.192 58.9681 9.784 58.9681 10.424V10.776C58.9681 11.416 58.8721 12.008 58.6801 12.552C58.4988 13.096 58.2268 13.576 57.8641 13.992C57.5121 14.3973 57.0855 14.7173 56.5841 14.952C56.0828 15.176 55.5175 15.288 54.8881 15.288ZM54.2161 13.144C54.6535 13.144 55.0321 13.0373 55.3521 12.824C55.6828 12.6107 55.9388 12.312 56.1201 11.928C56.3015 11.5333 56.3921 11.0907 56.3921 10.6C56.3921 10.0987 56.3015 9.66133 56.1201 9.288C55.9388 8.91467 55.6828 8.62667 55.3521 8.424C55.0321 8.21067 54.6535 8.104 54.2161 8.104C53.8321 8.104 53.4695 8.19467 53.1281 8.376C52.7868 8.55733 52.5095 8.81867 52.2961 9.16C52.0935 9.49067 51.9921 9.896 51.9921 10.376V10.968C51.9921 11.4267 52.0988 11.8213 52.3121 12.152C52.5361 12.472 52.8188 12.7173 53.1601 12.888C53.5015 13.0587 53.8535 13.144 54.2161 13.144ZM66.0421 15V12.408H65.6101V9.592C65.6101 9.144 65.5035 8.808 65.2901 8.584C65.0768 8.36 64.7355 8.248 64.2661 8.248C64.0315 8.248 63.7221 8.25333 63.3381 8.264C62.9541 8.27467 62.5595 8.29067 62.1541 8.312C61.7488 8.33333 61.3808 8.35467 61.0501 8.376V6.216C61.2955 6.19467 61.5835 6.17333 61.9141 6.152C62.2448 6.13067 62.5861 6.11467 62.9381 6.104C63.2901 6.09333 63.6208 6.088 63.9301 6.088C64.8261 6.088 65.5781 6.216 66.1861 6.472C66.8048 6.728 67.2741 7.11733 67.5941 7.64C67.9141 8.152 68.0741 8.81333 68.0741 9.624V15H66.0421ZM63.2421 15.224C62.6128 15.224 62.0581 15.112 61.5781 14.888C61.1088 14.664 60.7408 14.344 60.4741 13.928C60.2075 13.5013 60.0741 12.9947 60.0741 12.408C60.0741 11.768 60.2395 11.2453 60.5701 10.84C60.9008 10.424 61.3648 10.12 61.9621 9.928C62.5595 9.72533 63.2475 9.624 64.0261 9.624H65.8981V11.048H64.0101C63.5621 11.048 63.2155 11.16 62.9701 11.384C62.7355 11.5973 62.6181 11.8907 62.6181 12.264C62.6181 12.616 62.7355 12.904 62.9701 13.128C63.2155 13.3413 63.5621 13.448 64.0101 13.448C64.2981 13.448 64.5541 13.4 64.7781 13.304C65.0128 13.1973 65.2048 13.0213 65.3541 12.776C65.5035 12.5307 65.5888 12.1893 65.6101 11.752L66.2181 12.392C66.1648 13 66.0155 13.512 65.7701 13.928C65.5355 14.344 65.2048 14.664 64.7781 14.888C64.3621 15.112 63.8501 15.224 63.2421 15.224ZM74.4541 15.304C73.3981 15.304 72.5075 15.1387 71.7821 14.808C71.0568 14.4667 70.5075 14.008 70.1341 13.432C69.7608 12.8453 69.5741 12.1733 69.5741 11.416H72.1181C72.1181 11.7147 72.1981 11.992 72.3581 12.248C72.5288 12.504 72.7848 12.712 73.1261 12.872C73.4675 13.0213 73.9101 13.096 74.4541 13.096C74.9448 13.096 75.3555 13.032 75.6861 12.904C76.0168 12.776 76.2675 12.6 76.4381 12.376C76.6088 12.1413 76.6941 11.8747 76.6941 11.576C76.6941 11.2027 76.5341 10.9093 76.2141 10.696C75.8941 10.472 75.3768 10.328 74.6621 10.264L73.7821 10.184C72.6195 10.088 71.6915 9.72533 70.9981 9.096C70.3048 8.46667 69.9581 7.63467 69.9581 6.6C69.9581 5.85333 70.1341 5.208 70.4861 4.664C70.8488 4.12 71.3501 3.704 71.9901 3.416C72.6301 3.11733 73.3875 2.968 74.2621 2.968C75.1795 2.968 75.9635 3.128 76.6141 3.448C77.2755 3.75733 77.7821 4.2 78.1341 4.776C78.4861 5.34133 78.6621 6.008 78.6621 6.776H76.1021C76.1021 6.488 76.0328 6.22667 75.8941 5.992C75.7555 5.74667 75.5475 5.54933 75.2701 5.4C75.0035 5.25067 74.6675 5.176 74.2621 5.176C73.8781 5.176 73.5528 5.24 73.2861 5.368C73.0301 5.496 72.8381 5.672 72.7101 5.896C72.5821 6.10933 72.5181 6.344 72.5181 6.6C72.5181 6.93067 72.6355 7.21867 72.8701 7.464C73.1048 7.70933 73.4888 7.85333 74.0221 7.896L74.9181 7.976C75.7715 8.05067 76.5235 8.23733 77.1741 8.536C77.8248 8.824 78.3315 9.224 78.6941 9.736C79.0675 10.2373 79.2541 10.8507 79.2541 11.576C79.2541 12.3227 79.0568 12.9787 78.6621 13.544C78.2781 14.0987 77.7288 14.5307 77.0141 14.84C76.2995 15.1493 75.4461 15.304 74.4541 15.304ZM85.19 15.304C84.422 15.304 83.7393 15.1867 83.142 14.952C82.5447 14.7067 82.038 14.376 81.622 13.96C81.2167 13.544 80.9073 13.0693 80.694 12.536C80.4807 11.992 80.374 11.4213 80.374 10.824V10.456C80.374 9.848 80.4807 9.272 80.694 8.728C80.918 8.17333 81.238 7.688 81.654 7.272C82.0807 6.856 82.5927 6.53067 83.19 6.296C83.7873 6.05067 84.454 5.928 85.19 5.928C85.9473 5.928 86.6193 6.05067 87.206 6.296C87.8033 6.53067 88.31 6.856 88.726 7.272C89.142 7.688 89.462 8.17333 89.686 8.728C89.91 9.272 90.022 9.848 90.022 10.456V10.824C90.022 11.4213 89.9153 11.992 89.702 12.536C89.4887 13.0693 89.174 13.544 88.758 13.96C88.3527 14.376 87.8513 14.7067 87.254 14.952C86.6567 15.1867 85.9687 15.304 85.19 15.304ZM85.19 13.144C85.6913 13.144 86.1073 13.0373 86.438 12.824C86.7687 12.6107 87.0193 12.312 87.19 11.928C87.3713 11.544 87.462 11.1173 87.462 10.648C87.462 10.1467 87.3713 9.70933 87.19 9.336C87.0087 8.952 86.7473 8.648 86.406 8.424C86.0753 8.2 85.67 8.088 85.19 8.088C84.7207 8.088 84.3153 8.2 83.974 8.424C83.6327 8.648 83.3713 8.952 83.19 9.336C83.0193 9.70933 82.934 10.1467 82.934 10.648C82.934 11.1173 83.0193 11.544 83.19 11.928C83.3607 12.312 83.6167 12.6107 83.958 12.824C84.2993 13.0373 84.71 13.144 85.19 13.144ZM91.8086 15V6.232H93.8406V9.992H93.7926C93.7926 8.75467 94.054 7.8 94.5766 7.128C95.11 6.456 95.878 6.12 96.8806 6.12H97.2166V8.328H96.5766C95.8726 8.328 95.3286 8.52 94.9446 8.904C94.5606 9.27733 94.3686 9.82133 94.3686 10.536V15H91.8086ZM102.73 15.112C101.845 15.112 101.13 15.0053 100.586 14.792C100.042 14.568 99.6421 14.2 99.3861 13.688C99.1408 13.1653 99.0181 12.4613 99.0181 11.576V3.864H101.402V11.672C101.402 12.088 101.509 12.408 101.722 12.632C101.946 12.8453 102.261 12.952 102.666 12.952H103.962V15.112H102.73ZM97.6901 8.104V6.232H103.962V8.104H97.6901ZM109.668 15.304C108.922 15.304 108.26 15.176 107.684 14.92C107.119 14.664 106.644 14.3227 106.26 13.896C105.887 13.4587 105.599 12.9733 105.396 12.44C105.204 11.896 105.108 11.3413 105.108 10.776V10.456C105.108 9.86933 105.204 9.30933 105.396 8.776C105.599 8.232 105.887 7.74667 106.26 7.32C106.634 6.89333 107.098 6.55733 107.652 6.312C108.218 6.056 108.858 5.928 109.572 5.928C110.511 5.928 111.3 6.14133 111.94 6.568C112.591 6.984 113.087 7.53333 113.428 8.216C113.77 8.888 113.94 9.624 113.94 10.424V11.288H106.18V9.832H112.388L111.556 10.504C111.556 9.98133 111.482 9.53333 111.332 9.16C111.183 8.78667 110.959 8.504 110.66 8.312C110.372 8.10933 110.01 8.008 109.572 8.008C109.124 8.008 108.746 8.10933 108.436 8.312C108.127 8.51467 107.892 8.81333 107.732 9.208C107.572 9.592 107.492 10.0667 107.492 10.632C107.492 11.1547 107.567 11.6133 107.716 12.008C107.866 12.392 108.1 12.6907 108.42 12.904C108.74 13.1173 109.156 13.224 109.668 13.224C110.138 13.224 110.522 13.1333 110.82 12.952C111.119 12.7707 111.322 12.5467 111.428 12.28H113.78C113.652 12.8667 113.402 13.3893 113.028 13.848C112.655 14.3067 112.186 14.664 111.62 14.92C111.055 15.176 110.404 15.304 109.668 15.304Z" fill="#0682FF"/>
<defs>
<clipPath id="clip0_25_7580">
<rect width="16" height="16" fill="white" transform="translate(0 2)"/>
</clipPath>
</defs>
</svg>
