<svg width="113" height="16" viewBox="0 0 113 16" fill="none" xmlns="http://www.w3.org/2000/svg">
<g clip-path="url(#clip0_210_8)">
<path fill-rule="evenodd" clip-rule="evenodd" d="M8.47137 8.86192L10.724 11.1146C11.0151 11.4056 11.2133 11.7763 11.2935 12.18C11.3738 12.5836 11.3326 13.002 11.1751 13.3822C11.0176 13.7624 10.7509 14.0874 10.4087 14.316C10.0666 14.5446 9.66425 14.6666 9.25271 14.6666H9.11871C8.7255 14.6673 8.33925 14.5628 8.00004 14.3639C7.66083 14.5628 7.27459 14.6673 6.88137 14.6666H6.74804C6.33644 14.6668 5.93405 14.5448 5.59175 14.3163C5.24945 14.0877 4.98264 13.7627 4.82507 13.3825C4.66749 13.0022 4.62623 12.5838 4.7065 12.1801C4.78678 11.7764 4.98498 11.4056 5.27604 11.1146L7.52871 8.86125C7.65373 8.73627 7.82327 8.66606 8.00004 8.66606C8.17682 8.66606 8.34636 8.73627 8.47137 8.86125V8.86192ZM12.5867 4.66659C13.1181 4.66658 13.6294 4.86991 14.0156 5.23485C14.4019 5.5998 14.6339 6.09871 14.664 6.62925L14.6674 6.74725V6.88125C14.6683 7.27449 14.5638 7.66078 14.3647 7.99992C14.5327 8.28592 14.638 8.61392 14.662 8.96659L14.6674 9.11859V9.25192C14.6676 9.65189 14.5525 10.0434 14.336 10.3797C14.1194 10.716 13.8105 10.9827 13.4463 11.1479C13.082 11.3132 12.6779 11.3699 12.2822 11.3114C11.8866 11.2529 11.5162 11.0815 11.2154 10.8179L11.1154 10.7239L8.86204 8.47125C8.74736 8.35637 8.67852 8.2036 8.66846 8.04158C8.65839 7.87957 8.70779 7.71945 8.80738 7.59125L8.86271 7.52859L11.1154 5.27592C11.5054 4.88589 12.0351 4.66672 12.5867 4.66659ZM3.41337 4.66659C3.92004 4.66659 4.40671 4.85059 4.78471 5.18192L4.88471 5.27592L7.13804 7.52859C7.25273 7.64347 7.32156 7.79624 7.33162 7.95826C7.34169 8.12028 7.29229 8.2804 7.19271 8.40859L7.13738 8.47125L4.88471 10.7239C4.60071 11.0075 4.24077 11.203 3.84823 11.2868C3.4557 11.3705 3.04733 11.339 2.67231 11.1959C2.29728 11.0529 1.97161 10.8045 1.73453 10.4807C1.49744 10.1568 1.35906 9.77129 1.33604 9.37059L1.33337 9.25259V9.11859C1.33337 8.70859 1.44471 8.32659 1.63604 7.99992C1.46321 7.70516 1.3614 7.3742 1.33871 7.03325L1.33337 6.88192V6.74859C1.3332 6.47524 1.38689 6.20453 1.49137 5.95194C1.59586 5.69935 1.74909 5.46982 1.94232 5.27647C2.13554 5.08312 2.36497 4.92974 2.6175 4.8251C2.87002 4.72045 3.14003 4.66659 3.41337 4.66659ZM6.88071 1.33325C7.2739 1.33268 7.66011 1.43717 7.99937 1.63592C8.29413 1.46309 8.6251 1.36128 8.96604 1.33859L9.11804 1.33325H9.25137C9.65134 1.33302 10.0429 1.44808 10.3792 1.66464C10.7154 1.88121 10.9821 2.1901 11.1474 2.55434C11.3126 2.91858 11.3694 3.32272 11.3108 3.71838C11.2523 4.11405 11.081 4.48445 10.8174 4.78525L10.7234 4.88525L8.47071 7.13859C8.35583 7.25327 8.20305 7.32211 8.04104 7.33217C7.87902 7.34223 7.7189 7.29284 7.59071 7.19325L7.52804 7.13792L5.27537 4.88525C4.99146 4.60137 4.79574 4.24141 4.71183 3.84879C4.62791 3.45616 4.65939 3.04765 4.80245 2.67251C4.94551 2.29737 5.19406 1.97164 5.51811 1.73459C5.84215 1.49755 6.22786 1.35933 6.62871 1.33659L6.74738 1.33325H6.88071Z" fill="white"/>
</g>
<path d="M108.356 14.168C107.61 14.168 106.948 14.04 106.372 13.784C105.807 13.528 105.332 13.1867 104.948 12.76C104.575 12.3227 104.287 11.8373 104.084 11.304C103.892 10.76 103.796 10.2053 103.796 9.63999V9.31999C103.796 8.73333 103.892 8.17333 104.084 7.63999C104.287 7.09599 104.575 6.61066 104.948 6.18399C105.322 5.75733 105.786 5.42133 106.34 5.17599C106.906 4.91999 107.546 4.79199 108.26 4.79199C109.199 4.79199 109.988 5.00533 110.628 5.43199C111.279 5.84799 111.775 6.39733 112.116 7.07999C112.458 7.75199 112.628 8.48799 112.628 9.28799V10.152H104.868V8.69599H111.076L110.244 9.36799C110.244 8.84533 110.17 8.39733 110.02 8.02399C109.871 7.65066 109.647 7.36799 109.348 7.17599C109.06 6.97333 108.698 6.87199 108.26 6.87199C107.812 6.87199 107.434 6.97333 107.124 7.17599C106.815 7.37866 106.58 7.67733 106.42 8.07199C106.26 8.45599 106.18 8.93066 106.18 9.49599C106.18 10.0187 106.255 10.4773 106.404 10.872C106.554 11.256 106.788 11.5547 107.108 11.768C107.428 11.9813 107.844 12.088 108.356 12.088C108.826 12.088 109.21 11.9973 109.508 11.816C109.807 11.6347 110.01 11.4107 110.116 11.144H112.468C112.34 11.7307 112.09 12.2533 111.716 12.712C111.343 13.1707 110.874 13.528 110.308 13.784C109.743 14.04 109.092 14.168 108.356 14.168Z" fill="white"/>
<path d="M101.418 13.976C100.533 13.976 99.8182 13.8694 99.2742 13.656C98.7302 13.432 98.3302 13.064 98.0742 12.552C97.8288 12.0294 97.7062 11.3254 97.7062 10.44V2.72803H100.09V10.536C100.09 10.952 100.197 11.272 100.41 11.496C100.634 11.7094 100.949 11.816 101.354 11.816H102.65V13.976H101.418ZM96.3782 6.96803V5.09603H102.65V6.96803H96.3782Z" fill="white"/>
<path d="M90.4966 13.8641V5.09613H92.5286V8.85613H92.4806C92.4806 7.6188 92.7419 6.66413 93.2646 5.99213C93.7979 5.32013 94.5659 4.98413 95.5686 4.98413H95.9046V7.19213H95.2646C94.5606 7.19213 94.0166 7.38413 93.6326 7.76813C93.2486 8.14146 93.0566 8.68546 93.0566 9.40013V13.8641H90.4966Z" fill="white"/>
<path d="M83.878 14.168C83.11 14.168 82.4273 14.0507 81.83 13.816C81.2327 13.5707 80.726 13.24 80.31 12.824C79.9047 12.408 79.5953 11.9333 79.382 11.4C79.1687 10.856 79.062 10.2853 79.062 9.68799V9.31999C79.062 8.71199 79.1687 8.13599 79.382 7.59199C79.606 7.03733 79.926 6.55199 80.342 6.13599C80.7687 5.71999 81.2807 5.39466 81.878 5.15999C82.4753 4.91466 83.142 4.79199 83.878 4.79199C84.6353 4.79199 85.3073 4.91466 85.894 5.15999C86.4913 5.39466 86.998 5.71999 87.414 6.13599C87.83 6.55199 88.15 7.03733 88.374 7.59199C88.598 8.13599 88.71 8.71199 88.71 9.31999V9.68799C88.71 10.2853 88.6033 10.856 88.39 11.4C88.1767 11.9333 87.862 12.408 87.446 12.824C87.0407 13.24 86.5393 13.5707 85.942 13.816C85.3447 14.0507 84.6567 14.168 83.878 14.168ZM83.878 12.008C84.3793 12.008 84.7953 11.9013 85.126 11.688C85.4567 11.4747 85.7073 11.176 85.878 10.792C86.0593 10.408 86.15 9.98133 86.15 9.51199C86.15 9.01066 86.0593 8.57333 85.878 8.19999C85.6967 7.81599 85.4353 7.51199 85.094 7.28799C84.7633 7.06399 84.358 6.95199 83.878 6.95199C83.4087 6.95199 83.0033 7.06399 82.662 7.28799C82.3207 7.51199 82.0593 7.81599 81.878 8.19999C81.7073 8.57333 81.622 9.01066 81.622 9.51199C81.622 9.98133 81.7073 10.408 81.878 10.792C82.0487 11.176 82.3047 11.4747 82.646 11.688C82.9873 11.9013 83.398 12.008 83.878 12.008Z" fill="white"/>
<path d="M73.1421 14.168C72.0861 14.168 71.1954 14.0027 70.4701 13.672C69.7448 13.3307 69.1954 12.872 68.8221 12.296C68.4488 11.7094 68.2621 11.0374 68.2621 10.28H70.8061C70.8061 10.5787 70.8861 10.856 71.0461 11.112C71.2168 11.368 71.4728 11.576 71.8141 11.736C72.1554 11.8854 72.5981 11.96 73.1421 11.96C73.6328 11.96 74.0434 11.896 74.3741 11.768C74.7048 11.64 74.9554 11.464 75.1261 11.24C75.2968 11.0054 75.3821 10.7387 75.3821 10.44C75.3821 10.0667 75.2221 9.77336 74.9021 9.56003C74.5821 9.33603 74.0648 9.19203 73.3501 9.12803L72.4701 9.04803C71.3074 8.95203 70.3794 8.58937 69.6861 7.96003C68.9928 7.3307 68.6461 6.4987 68.6461 5.46403C68.6461 4.71736 68.8221 4.07203 69.1741 3.52803C69.5368 2.98403 70.0381 2.56803 70.6781 2.28003C71.3181 1.98136 72.0754 1.83203 72.9501 1.83203C73.8674 1.83203 74.6514 1.99203 75.3021 2.31203C75.9634 2.62136 76.4701 3.06403 76.8221 3.64003C77.1741 4.20536 77.3501 4.87203 77.3501 5.64003H74.7901C74.7901 5.35203 74.7208 5.0907 74.5821 4.85603C74.4434 4.6107 74.2354 4.41336 73.9581 4.26403C73.6914 4.1147 73.3554 4.04003 72.9501 4.04003C72.5661 4.04003 72.2408 4.10403 71.9741 4.23203C71.7181 4.36003 71.5261 4.53603 71.3981 4.76003C71.2701 4.97336 71.2061 5.20803 71.2061 5.46403C71.2061 5.7947 71.3234 6.0827 71.5581 6.32803C71.7928 6.57336 72.1768 6.71736 72.7101 6.76003L73.6061 6.84003C74.4594 6.9147 75.2114 7.10136 75.8621 7.40003C76.5128 7.68803 77.0194 8.08803 77.3821 8.60003C77.7554 9.10137 77.9421 9.7147 77.9421 10.44C77.9421 11.1867 77.7448 11.8427 77.3501 12.408C76.9661 12.9627 76.4168 13.3947 75.7021 13.704C74.9874 14.0134 74.1341 14.168 73.1421 14.168Z" fill="white"/>
<path d="M64.7301 13.8641V11.2721H64.2981V8.45615C64.2981 8.00815 64.1914 7.67215 63.9781 7.44815C63.7648 7.22415 63.4234 7.11215 62.9541 7.11215C62.7194 7.11215 62.4101 7.11748 62.0261 7.12815C61.6421 7.13882 61.2474 7.15482 60.8421 7.17615C60.4368 7.19748 60.0688 7.21882 59.7381 7.24015V5.08015C59.9834 5.05882 60.2714 5.03748 60.6021 5.01615C60.9328 4.99482 61.2741 4.97882 61.6261 4.96815C61.9781 4.95748 62.3088 4.95215 62.6181 4.95215C63.5141 4.95215 64.2661 5.08015 64.8741 5.33615C65.4928 5.59215 65.9621 5.98148 66.2821 6.50415C66.6021 7.01615 66.7621 7.67748 66.7621 8.48815V13.8641H64.7301ZM61.9301 14.0881C61.3008 14.0881 60.7461 13.9761 60.2661 13.7521C59.7968 13.5281 59.4288 13.2081 59.1621 12.7921C58.8954 12.3655 58.7621 11.8588 58.7621 11.2721C58.7621 10.6321 58.9274 10.1095 59.2581 9.70415C59.5888 9.28815 60.0528 8.98415 60.6501 8.79215C61.2474 8.58948 61.9354 8.48815 62.7141 8.48815H64.5861V9.91215H62.6981C62.2501 9.91215 61.9034 10.0241 61.6581 10.2481C61.4234 10.4615 61.3061 10.7548 61.3061 11.1281C61.3061 11.4801 61.4234 11.7681 61.6581 11.9921C61.9034 12.2055 62.2501 12.3121 62.6981 12.3121C62.9861 12.3121 63.2421 12.2641 63.4661 12.1681C63.7008 12.0615 63.8928 11.8855 64.0421 11.6401C64.1914 11.3948 64.2768 11.0535 64.2981 10.6161L64.9061 11.2561C64.8528 11.8641 64.7034 12.3761 64.4581 12.7921C64.2234 13.2081 63.8928 13.5281 63.4661 13.7521C63.0501 13.9761 62.5381 14.0881 61.9301 14.0881Z" fill="white"/>
<path d="M53.5761 14.1521C52.8614 14.1521 52.2321 14.0027 51.6881 13.7041C51.1441 13.3947 50.7174 12.9521 50.4081 12.3761C50.0987 11.8001 49.9334 11.0961 49.9121 10.2641H50.2161V13.8641H48.1841V2.18408H50.7441V8.12008L50.1361 8.88808C50.1681 8.00275 50.3334 7.26142 50.6321 6.66408C50.9414 6.05608 51.3628 5.60275 51.8961 5.30408C52.4294 4.99475 53.0374 4.84008 53.7201 4.84008C54.3174 4.84008 54.8561 4.95208 55.3361 5.17608C55.8267 5.38942 56.2428 5.69875 56.5841 6.10408C56.9254 6.49875 57.1868 6.96808 57.3681 7.51208C57.5601 8.05608 57.6561 8.64808 57.6561 9.28808V9.64008C57.6561 10.2801 57.5601 10.8721 57.3681 11.4161C57.1868 11.9601 56.9147 12.4401 56.5521 12.8561C56.2001 13.2614 55.7734 13.5814 55.2721 13.8161C54.7707 14.0401 54.2054 14.1521 53.5761 14.1521ZM52.9041 12.0081C53.3414 12.0081 53.7201 11.9014 54.0401 11.6881C54.3708 11.4747 54.6267 11.1761 54.8081 10.7921C54.9894 10.3974 55.0801 9.95475 55.0801 9.46408C55.0801 8.96275 54.9894 8.52542 54.8081 8.15208C54.6267 7.77875 54.3708 7.49075 54.0401 7.28808C53.7201 7.07475 53.3414 6.96808 52.9041 6.96808C52.5201 6.96808 52.1574 7.05875 51.8161 7.24008C51.4747 7.42142 51.1974 7.68275 50.9841 8.02408C50.7814 8.35475 50.6801 8.76008 50.6801 9.24008V9.83208C50.6801 10.2907 50.7868 10.6854 51.0001 11.0161C51.2241 11.3361 51.5068 11.5814 51.8481 11.7521C52.1894 11.9227 52.5414 12.0081 52.9041 12.0081Z" fill="white"/>
<path d="M41.5655 14.168C40.7975 14.168 40.1148 14.0507 39.5175 13.816C38.9202 13.5707 38.4135 13.24 37.9975 12.824C37.5922 12.408 37.2828 11.9333 37.0695 11.4C36.8562 10.856 36.7495 10.2853 36.7495 9.68799V9.31999C36.7495 8.71199 36.8562 8.13599 37.0695 7.59199C37.2935 7.03733 37.6135 6.55199 38.0295 6.13599C38.4562 5.71999 38.9682 5.39466 39.5655 5.15999C40.1628 4.91466 40.8295 4.79199 41.5655 4.79199C42.3228 4.79199 42.9948 4.91466 43.5815 5.15999C44.1788 5.39466 44.6855 5.71999 45.1015 6.13599C45.5175 6.55199 45.8375 7.03733 46.0615 7.59199C46.2855 8.13599 46.3975 8.71199 46.3975 9.31999V9.68799C46.3975 10.2853 46.2908 10.856 46.0775 11.4C45.8642 11.9333 45.5495 12.408 45.1335 12.824C44.7282 13.24 44.2268 13.5707 43.6295 13.816C43.0322 14.0507 42.3442 14.168 41.5655 14.168ZM41.5655 12.008C42.0668 12.008 42.4828 11.9013 42.8135 11.688C43.1442 11.4747 43.3948 11.176 43.5655 10.792C43.7468 10.408 43.8375 9.98133 43.8375 9.51199C43.8375 9.01066 43.7468 8.57333 43.5655 8.19999C43.3842 7.81599 43.1228 7.51199 42.7815 7.28799C42.4508 7.06399 42.0455 6.95199 41.5655 6.95199C41.0962 6.95199 40.6908 7.06399 40.3495 7.28799C40.0082 7.51199 39.7468 7.81599 39.5655 8.19999C39.3948 8.57333 39.3095 9.01066 39.3095 9.51199C39.3095 9.98133 39.3948 10.408 39.5655 10.792C39.7362 11.176 39.9922 11.4747 40.3335 11.688C40.6748 11.9013 41.0855 12.008 41.5655 12.008Z" fill="white"/>
<path d="M30.606 13.8641V5.09613H32.638V8.85613H32.59C32.59 7.6188 32.8513 6.66413 33.374 5.99213C33.9073 5.32013 34.6753 4.98413 35.678 4.98413H36.014V7.19213H35.374C34.67 7.19213 34.126 7.38413 33.742 7.76813C33.358 8.14146 33.166 8.68546 33.166 9.40013V13.8641H30.606Z" fill="white"/>
<path d="M22.304 10.5201V8.24814H24.4C24.8053 8.24814 25.152 8.16814 25.44 8.00813C25.7387 7.84813 25.968 7.62414 26.128 7.33614C26.288 7.03747 26.368 6.69614 26.368 6.31214C26.368 5.9068 26.288 5.56014 26.128 5.27214C25.968 4.97347 25.7387 4.74947 25.44 4.60013C25.152 4.44014 24.8053 4.36014 24.4 4.36014H22.304V2.08813H24.272C25.264 2.08813 26.112 2.25347 26.816 2.58414C27.5307 2.9148 28.0747 3.38414 28.448 3.99214C28.832 4.60014 29.024 5.3308 29.024 6.18414V6.44014C29.024 7.27214 28.832 7.99747 28.448 8.61614C28.0747 9.22414 27.5307 9.69347 26.816 10.0241C26.112 10.3548 25.264 10.5201 24.272 10.5201H22.304ZM20 13.8641V2.08813H22.624V13.8641H20Z" fill="white"/>
<defs>
<clipPath id="clip0_210_8">
<rect width="16" height="16" fill="white"/>
</clipPath>
</defs>
</svg>
